<svg width="285" height="104" viewBox="0 0 285 104" fill="none" xmlns="http://www.w3.org/2000/svg">
<path d="M136.482 8.66666C112.605 8.66666 93.1483 28.1233 93.1483 52C93.1483 75.8767 112.605 95.3333 136.482 95.3333C160.358 95.3333 179.815 75.8767 179.815 52C179.815 28.1233 160.358 8.66666 136.482 8.66666ZM157.195 42.0333L132.625 66.6033C132.018 67.21 131.195 67.5567 130.328 67.5567C129.462 67.5567 128.638 67.21 128.032 66.6033L115.768 54.34C114.512 53.0833 114.512 51.0033 115.768 49.7467C117.025 48.49 119.105 48.49 120.362 49.7467L130.328 59.7133L152.602 37.44C153.858 36.1833 155.938 36.1833 157.195 37.44C158.452 38.6967 158.452 40.7333 157.195 42.0333Z" fill="#34C759"/>
<path d="M12.6358 3.16801C12.867 2.30188 14.0961 2.30188 14.3273 3.16801C15.8898 9.02054 20.461 13.5918 26.3136 15.1542C27.1797 15.3855 27.1797 16.6145 26.3136 16.8458C20.461 18.4083 15.8898 22.9795 14.3273 28.832C14.0961 29.6981 12.867 29.6981 12.6358 28.832C11.0733 22.9795 6.50211 18.4083 0.64958 16.8458C-0.216552 16.6145 -0.216552 15.3855 0.64958 15.1542C6.50211 13.5918 11.0733 9.02054 12.6358 3.16801Z" fill="#34C759"/>
<path d="M272.327 55.168C272.096 54.3019 270.867 54.3019 270.636 55.168C269.073 61.0205 264.502 65.5918 258.65 67.1542C257.783 67.3855 257.783 68.6145 258.65 68.8458C264.502 70.4083 269.073 74.9795 270.636 80.832C270.867 81.6981 272.096 81.6981 272.327 80.832C273.89 74.9795 278.461 70.4083 284.314 68.8458C285.18 68.6145 285.18 67.3855 284.314 67.1542C278.461 65.5918 273.89 61.0205 272.327 55.168Z" fill="#34C759"/>
<path d="M42.6964 42.8809C42.9113 42.0767 44.0518 42.0767 44.2667 42.8809C46.6566 51.8326 53.649 58.825 62.6007 61.2148C63.4049 61.4298 63.4049 62.5702 62.6007 62.7852C53.649 65.175 46.6566 72.1674 44.2667 81.1191C44.0518 81.9233 42.9113 81.9233 42.6964 81.1191C40.3065 72.1674 33.3141 65.175 24.3624 62.7852C23.5582 62.5702 23.5582 61.4298 24.3624 61.2148C33.3141 58.825 40.3065 51.8326 42.6964 42.8809Z" stroke="#34C759"/>
<path d="M232.75 4.75202C232.403 3.45282 230.56 3.45282 230.213 4.75202C227.869 13.5308 221.012 20.3876 212.234 22.7313C210.934 23.0782 210.934 24.9218 212.234 25.2687C221.012 27.6124 227.869 34.4692 230.213 43.248C230.56 44.5472 232.403 44.5472 232.75 43.248C235.094 34.4692 241.951 27.6124 250.73 25.2687C252.029 24.9218 252.029 23.0782 250.73 22.7313C241.951 20.3876 235.094 13.5308 232.75 4.75202Z" fill="#8AE6A1"/>
</svg>
