<svg width="16" height="13" viewBox="0 0 16 13" fill="none" xmlns="http://www.w3.org/2000/svg">
<path d="M0.5 1.91667C0.5 1.54094 0.649255 1.18061 0.914932 0.914932C1.18061 0.649255 1.54094 0.5 1.91667 0.5H13.25C13.6257 0.5 13.9861 0.649255 14.2517 0.914932C14.5174 1.18061 14.6667 1.54094 14.6667 1.91667V10.4167C14.6667 10.7924 14.5174 11.1527 14.2517 11.4184C13.9861 11.6841 13.6257 11.8333 13.25 11.8333H1.91667C1.54094 11.8333 1.18061 11.6841 0.914932 11.4184C0.649255 11.1527 0.5 10.7924 0.5 10.4167V1.91667Z" stroke="white" stroke-linecap="round" stroke-linejoin="round"/>
<path d="M0.5 3.33325L5.81321 7.58396C6.31562 7.98595 6.9399 8.20496 7.58333 8.20496C8.22677 8.20496 8.85105 7.98595 9.35346 7.58396L14.6667 3.33325" stroke="white" stroke-linejoin="round"/>
</svg>
