<?xml version="1.0" standalone="no"?>
<!DOCTYPE svg PUBLIC "-//W3C//DTD SVG 20010904//EN"
 "http://www.w3.org/TR/2001/REC-SVG-20010904/DTD/svg10.dtd">
<svg version="1.0" xmlns="http://www.w3.org/2000/svg"
 width="998.000000pt" height="300.000000pt" viewBox="0 0 998.000000 300.000000"
 preserveAspectRatio="xMidYMid meet">

<g transform="translate(0.000000,300.000000) scale(0.100000,-0.100000)"
fill="#000000" stroke="none">
<path d="M2573 2645 c-29 -139 -112 -252 -225 -307 -128 -63 -118 -62 -760
-66 l-588 -3 0 -305 0 -304 527 0 526 0 -7 -157 c-3 -87 -13 -188 -20 -224
-29 -135 -99 -228 -210 -280 -111 -52 -170 -59 -508 -59 l-308 0 0 -398 0
-399 109 -57 c60 -31 127 -63 150 -71 38 -13 44 -13 98 11 203 90 452 278 626
472 307 342 494 761 579 1297 17 107 21 193 25 490 6 410 4 449 -14 360z"/>
<path d="M8125 2579 c-127 -13 -231 -65 -318 -159 -229 -247 -161 -670 134
-825 305 -160 678 -15 772 301 58 197 11 403 -125 538 -119 118 -270 165 -463
145z m179 -239 c61 -23 124 -84 152 -147 28 -61 25 -204 -5 -271 -28 -62 -106
-137 -159 -152 -185 -51 -347 68 -360 265 -6 99 16 173 70 232 84 90 188 115
302 73z"/>
<path d="M3320 2060 l0 -510 125 0 125 0 0 190 0 190 95 0 c153 0 202 35 212
150 l6 60 -157 0 -156 0 0 109 0 110 151 3 151 3 34 37 c31 35 34 43 34 103
l0 65 -310 0 -310 0 0 -510z"/>
<path d="M4080 2056 l0 -516 130 0 130 0 0 175 0 176 58 -3 57 -3 90 -172 90
-173 138 0 139 0 -20 33 c-11 17 -59 104 -107 192 -49 88 -93 168 -99 177 -8
14 -3 23 30 52 22 18 53 58 69 87 25 47 30 67 33 149 5 126 -17 190 -89 254
-81 73 -107 78 -396 84 l-253 4 0 -516z m447 280 c50 -25 68 -108 38 -166 -25
-49 -51 -60 -142 -60 l-83 0 0 126 0 127 78 -6 c44 -2 93 -12 109 -21z"/>
<path d="M5030 2060 l0 -510 330 0 330 0 0 105 0 105 -205 0 -205 0 0 100 0
100 155 0 155 0 0 105 0 105 -155 0 -155 0 0 95 0 95 195 0 195 0 0 105 0 105
-320 0 -320 0 0 -510z"/>
<path d="M5850 2060 l0 -510 330 0 330 0 0 105 0 105 -205 0 -205 0 0 100 0
100 155 0 155 0 0 105 0 105 -155 0 -155 0 0 95 0 95 195 0 195 0 0 105 0 105
-320 0 -320 0 0 -510z"/>
<path d="M6670 2060 l0 -512 258 4 c241 4 261 5 317 27 169 67 264 176 300
346 42 199 -7 387 -132 506 -120 115 -178 131 -495 137 l-248 4 0 -512z m482
272 c94 -41 148 -140 148 -272 0 -90 -23 -162 -67 -211 -57 -63 -102 -81 -215
-87 l-98 -5 0 303 0 303 94 -6 c61 -3 110 -12 138 -25z"/>
<path d="M8940 2553 c0 -10 -18 -234 -40 -498 -22 -264 -40 -486 -40 -492 0
-10 31 -13 123 -13 l124 0 12 168 c7 92 15 232 18 310 l6 144 81 -229 81 -228
109 0 109 0 83 230 c76 210 83 226 83 180 0 -27 8 -168 18 -312 l17 -263 123
0 c121 0 123 0 123 23 0 12 -18 238 -40 502 -22 264 -40 484 -40 488 0 4 -61
6 -136 5 l-137 -3 -83 -240 c-45 -132 -90 -267 -99 -300 l-18 -59 -97 291
c-54 161 -101 296 -105 302 -4 7 -56 11 -141 11 -121 0 -134 -2 -134 -17z"/>
<path d="M3320 854 l0 -366 193 4 c174 3 196 5 232 25 81 43 115 98 115 184 0
77 -37 142 -93 162 -8 3 -3 15 14 33 40 44 49 67 49 131 0 69 -22 111 -77 147
-52 34 -131 46 -295 46 l-138 0 0 -366z m315 196 c18 -15 19 -70 2 -94 -9 -12
-32 -19 -75 -23 l-62 -6 0 73 0 73 60 -6 c34 -3 67 -11 75 -17z m25 -280 c28
-28 26 -75 -5 -106 -22 -22 -32 -25 -93 -22 l-67 3 -3 73 -3 72 76 0 c62 0 79
-4 95 -20z"/>
<path d="M4135 1203 c-4 -10 -60 -174 -125 -365 l-119 -348 93 0 93 0 20 73
19 72 116 3 115 3 22 -76 23 -75 89 0 c49 0 89 4 89 9 0 11 -236 696 -245 710
-3 7 -43 11 -95 11 -74 0 -89 -3 -95 -17z m141 -319 c13 -45 24 -87 24 -93 0
-7 -26 -11 -71 -11 -63 0 -71 2 -66 18 2 9 17 62 32 117 38 137 37 135 47 90
6 -22 21 -77 34 -121z"/>
<path d="M4650 855 l0 -365 85 0 85 0 0 228 1 227 42 -80 c23 -44 82 -146 131
-227 l89 -148 88 0 89 0 0 365 0 366 -87 -3 -88 -3 1 -228 c1 -205 0 -225 -13
-195 -8 18 -66 122 -131 231 l-116 197 -88 0 -88 0 0 -365z"/>
<path d="M5417 1213 c-4 -3 -7 -168 -7 -365 l0 -358 90 0 90 0 0 145 0 145 39
0 39 0 75 -142 75 -143 102 -3 102 -3 -20 33 c-41 68 -182 335 -182 344 0 5
43 85 95 178 52 92 95 170 95 172 0 2 -42 4 -93 4 l-93 0 -78 -146 -79 -145
-36 3 -36 3 -3 143 -3 142 -83 0 c-45 0 -86 -3 -89 -7z"/>
</g>
</svg>
