<svg width="17" height="17" viewBox="0 0 17 17" fill="none" xmlns="http://www.w3.org/2000/svg">
<path d="M8.5 9.2085C9.6736 9.2085 10.625 8.2571 10.625 7.0835C10.625 5.90989 9.6736 4.9585 8.5 4.9585C7.32639 4.9585 6.375 5.90989 6.375 7.0835C6.375 8.2571 7.32639 9.2085 8.5 9.2085Z" stroke="white" stroke-linecap="round" stroke-linejoin="round"/>
<path d="M8.50004 1.41675C6.99715 1.41675 5.55581 2.01377 4.4931 3.07648C3.4304 4.13918 2.83337 5.58052 2.83337 7.08341C2.83337 8.42358 3.11812 9.3005 3.89587 10.2709L8.50004 15.5834L13.1042 10.2709C13.882 9.3005 14.1667 8.42358 14.1667 7.08341C14.1667 5.58052 13.5697 4.13918 12.507 3.07648C11.4443 2.01377 10.0029 1.41675 8.50004 1.41675Z" stroke="white" stroke-linecap="round" stroke-linejoin="round"/>
</svg>
