<svg width="14" height="14" viewBox="0 0 14 14" fill="none" xmlns="http://www.w3.org/2000/svg">
<path d="M3.59896 0.5C3.95312 0.5 5.36979 3.6875 5.36979 4.04167C5.36979 4.75 4.30729 5.45833 3.95312 6.16667C3.59896 6.875 4.30729 7.58333 5.01562 8.29167C5.29187 8.56792 6.43229 9.70833 7.14062 9.35417C7.84896 9 8.55729 7.9375 9.26562 7.9375C9.61979 7.9375 12.8073 9.35417 12.8073 9.70833C12.8073 11.125 11.7448 12.1875 10.6823 12.5417C9.61979 12.8958 8.91146 12.8958 7.49479 12.5417C6.07812 12.1875 5.01562 11.8333 3.24479 10.0625C1.47396 8.29167 1.11979 7.22917 0.765625 5.8125C0.411458 4.39583 0.411458 3.6875 0.765625 2.625C1.11979 1.5625 2.18229 0.5 3.59896 0.5Z" stroke="white" stroke-linecap="round" stroke-linejoin="round"/>
</svg>
